<?xml version="1.0" encoding="UTF-8"?>
<svg width="328px" height="206px" viewBox="0 0 328 206" version="1.1" xmlns="http://www.w3.org/2000/svg" xmlns:xlink="http://www.w3.org/1999/xlink">
    <title>Group</title>
    <g id="Page-1" stroke="none" stroke-width="1" fill="none" fill-rule="evenodd">
        <g id="Group" transform="translate(0.000000, 1.000000)">
            <polygon id="E" fill="#000000" fill-rule="nonzero" points="102.432519 163.167969 99.2493574 181 0 181 28.9749357 15 127 15 123.816838 32.8320313 45.7069409 32.8320313 35.8309769 88.921875 105.86054 88.921875 102.758997 106.753906 32.811054 106.753906 22.93509 163.167969"></polygon>
            <circle id="Oval-Copy-3" stroke="#000000" cx="121" cy="25" r="25"></circle>
            <circle id="Oval-Copy-5" stroke="#000000" cx="98" cy="179" r="25"></circle>
            <polygon id="N" fill="#000000" fill-rule="nonzero" points="312 15 283.053854 181 264.67793 181 202.476241 50.9882812 200.768743 50.9072264 177.676875 181 158 181 186.864836 15 205.32207 15 267.686378 145.660156 269.475185 145.741211 292.567054 15"></polygon>
            <circle id="Oval-Copy" stroke="#000000" cx="167" cy="179" r="25"></circle>
            <circle id="Oval-Copy-2" stroke="#000000" cx="302" cy="25" r="25"></circle>
        </g>
    </g>
</svg>