<?xml version="1.0" encoding="UTF-8"?>
<svg width="26px" height="26px" viewBox="0 0 26 26" version="1.1" xmlns="http://www.w3.org/2000/svg" xmlns:xlink="http://www.w3.org/1999/xlink">
    <title>Group 2</title>
    <g id="Page-1" stroke="none" stroke-width="1" fill="none" fill-rule="evenodd">
        <g id="Group-2">
            <circle id="Oval" fill="#D8D8D8" cx="13" cy="13" r="13"></circle>
            <g id="Group" transform="translate(4.000000, 4.000000)" fill="#000000">
                <path d="M9,6.4995 C7.6215,6.4995 6.50025,7.6215 6.50025,9 C6.50025,10.3785 7.6215,11.49975 9,11.49975 C10.3785,11.49975 11.49975,10.3785 11.49975,9 C11.49975,7.6215 10.3785,6.4995 9,6.4995 M9,12.24975 C7.2075,12.24975 5.75025,10.7925 5.75025,9 C5.75025,7.2075 7.2075,5.7495 9,5.7495 C10.7925,5.7495 12.24975,7.2075 12.24975,9 C12.24975,10.7925 10.7925,12.24975 9,12.24975 M8.10525,17.25 L9.89475,17.25 C10.179,16.422 10.39575,15.41175 11.475,14.9625 C12.597,14.49975 13.4745,15.1095 14.20125,15.4665 L15.46575,14.2005 C15.08475,13.41525 14.51625,12.55125 14.964,11.46975 C15.38925,10.443 16.26825,10.2225 17.25,9.8955 L17.25,8.1045 C16.32375,7.78875 15.39675,7.5735 14.96475,6.531 C14.53575,5.496 15.0075,4.73475 15.4665,3.79875 L14.20125,2.53425 C13.3635,2.9445 12.5355,3.477 11.46975,3.03525 C10.43925,2.607 10.22775,1.73475 9.89475,0.75 L8.10525,0.75 C7.78725,1.67325 7.57725,2.601 6.531,3.0345 C6.25725,3.14925 5.9925,3.204 5.72325,3.204 C5.091,3.204 4.569,2.91 3.79875,2.53425 L2.5335,3.79875 C2.964,4.68 3.47175,5.4765 3.03525,6.531 C2.607,7.56225 1.73475,7.7715 0.75,8.1045 L0.75,9.8955 C1.6695,10.209 2.601,10.42425 3.03525,11.469 C3.471,12.52125 2.979,13.293 2.5335,14.20125 L3.79875,15.4665 C4.88625,14.92275 5.565,14.5635 6.53025,14.96475 C7.56375,15.39375 7.7715,16.26825 8.10525,17.25 M10.42575,18 L7.5735,18 C7.06275,16.5615 6.98475,15.96525 6.24375,15.65775 C5.49,15.3435 4.9455,15.75675 3.64425,16.37175 L1.6275,14.355 C2.28225,12.97725 2.65275,12.50625 2.34225,11.75625 C2.03325,11.013 1.44825,10.941 0,10.4265 L0,7.5735 C1.4295,7.065 2.034,6.987 2.34225,6.24375 C2.6505,5.5005 2.289,5.034 1.6275,3.64425 L3.64425,1.62825 C4.95,2.24925 5.49375,2.652 6.243,2.343 C6.987,2.034 7.0545,1.45425 7.57425,0 L10.42575,0 C10.93725,1.4385 11.01675,2.0355 11.75625,2.34225 C12.507,2.65425 13.038,2.253 14.3565,1.62825 L16.37175,3.64425 C15.71325,5.0295 15.351,5.502 15.65775,6.243 C15.966,6.987 16.55175,7.05825 18,7.5735 L18,10.42725 C16.5705,10.935 15.96525,11.01375 15.657,11.757 C15.35475,12.48825 15.69,12.92775 16.3725,14.355 L14.3565,16.37175 C13.0605,15.75675 12.50625,15.34425 11.7645,15.6555 C11.0235,15.963 10.9545,16.515 10.42575,18" id="Shape"></path>
            </g>
        </g>
    </g>
</svg>